# xmcd
#
# Track frame offsets:
#	150
#	15063
#	34476
#	52011
#	68973
#	84483
#	104875
#	124393
#	144679
#	160205
#	178927
#	197498
#	216082
#
# Disc length: 3106 seconds
# Revision: 0
# Processed by: cddbd v1.5.2PL0 Copyright (c) Steve Scherf et al.
# Submitted via: dBpowerAMP V12.0
#
DISCID=c20c200d
DTITLE=Reagan Boggs - Quicksand
DYEAR=2014
DGENRE=Country
TTITLE0=On a Bad Note
TTITLE1=Saving Grace
TTITLE2=When It Mattered
TTITLE3=Can't Do Life
TTITLE4=Appalachia
TTITLE5=Seldom Do
TTITLE6=Better Man feat. Eric Brace
TTITLE7=On My Own
TTITLE8=You Deserve Better feat. Dave Coleman
TTITLE9=Not the New Me
TTITLE10=Houston
TTITLE11=Come to Me
TTITLE12=Not That Special
EXTD=
EXTT0=
EXTT1=
EXTT2=
EXTT3=
EXTT4=
EXTT5=
EXTT6=
EXTT7=
EXTT8=
EXTT9=
EXTT10=
EXTT11=
EXTT12=
PLAYORDER=
